<svg width="256.000000" height="227.183350" viewBox="0 0 256 227.183" fill="none" xmlns="http://www.w3.org/2000/svg" xmlns:xlink="http://www.w3.org/1999/xlink">
	<desc>
			Created with Pixso.
	</desc>
	<defs>
		<clipPath id="clip15_2561">
			<rect id="undraw_resume_folder_re_e0bi 1" rx="-0.500000" width="255.000000" height="205.408401" transform="translate(0.500000 21.274902)" fill="white" fill-opacity="0"/>
		</clipPath>
	</defs>
	<rect id="undraw_resume_folder_re_e0bi 1" rx="-0.500000" width="255.000000" height="205.408401" transform="translate(0.500000 21.274902)" fill="#FFFFFF" fill-opacity="0"/>
	<g clip-path="url(#clip15_2561)">
		<path id="Vector" d="M46.12 156.77C45.9 156.77 45.67 156.74 45.46 156.67C45.19 156.58 44.93 156.44 44.72 156.26C44.5 156.08 44.32 155.85 44.19 155.6L42.1 151.53C41.84 151.02 41.79 150.43 41.96 149.88C42.14 149.33 42.52 148.88 43.03 148.62L76.84 131.16C77.35 130.89 77.95 130.85 78.49 131.02C79.04 131.2 79.49 131.58 79.76 132.09L81.85 136.15C82.11 136.66 82.16 137.26 81.99 137.81C81.81 138.35 81.43 138.81 80.92 139.07L47.11 156.53C46.8 156.69 46.46 156.77 46.12 156.77Z" fill="#4B93E7" fill-opacity="1.000000" fill-rule="nonzero"/>
		<path id="Vector" d="M58.38 140.94C58.47 141.07 58.55 141.2 58.61 141.35L62.19 149.16C62.3 149.42 62.36 149.7 62.37 149.99C62.38 150.27 62.33 150.55 62.23 150.82C62.12 151.08 61.97 151.33 61.77 151.53C61.58 151.74 61.34 151.9 61.08 152.02L49.07 156.23C47.82 156.66 46.45 156.63 45.23 156.12C44 155.62 43.01 154.68 42.43 153.49C41.82 152.24 41.71 150.81 42.13 149.49C42.55 148.16 43.46 147.05 44.67 146.38L55.75 140.24C56.2 140.04 56.71 140 57.19 140.13C57.67 140.25 58.09 140.54 58.38 140.94Z" fill="#082777" fill-opacity="1.000000" fill-rule="nonzero"/>
		<path id="Vector" d="M199.87 120.49L141.99 120.49C140.67 120.49 139.4 120.01 138.41 119.14L114.57 98.08C113.75 97.35 112.7 96.95 111.6 96.95L91.03 96.95L91.03 25.88C91.03 24.53 91.57 23.23 92.52 22.27C93.48 21.31 94.78 20.77 96.13 20.77L194.77 20.77C196.12 20.77 197.42 21.31 198.38 22.27C199.33 23.23 199.87 24.53 199.87 25.88L199.87 120.49Z" fill="#FFFFFF" fill-opacity="1.000000" fill-rule="nonzero"/>
		<path id="Vector" d="M125.51 42.91C125.51 48.9 120.66 53.75 114.68 53.75C108.71 53.75 103.86 48.9 103.86 42.91C103.86 36.93 108.71 32.07 114.68 32.07C120.66 32.07 125.51 36.93 125.51 42.91Z" fill="#EBEBEB" fill-opacity="1.000000" fill-rule="evenodd"/>
		<path id="Vector" d="M156.74 37.11L136.64 37.11C136.27 37.11 135.92 37.25 135.65 37.51C135.39 37.78 135.25 38.13 135.25 38.5C135.25 38.87 135.39 39.22 135.65 39.49C135.92 39.75 136.27 39.89 136.64 39.89L156.74 39.89C157.11 39.89 157.46 39.75 157.72 39.49C157.98 39.22 158.13 38.87 158.13 38.5C158.13 38.13 157.98 37.78 157.72 37.51C157.46 37.25 157.11 37.11 156.74 37.11Z" fill="#EBEBEB" fill-opacity="1.000000" fill-rule="nonzero"/>
		<path id="Vector" d="M185.91 45.93L136.37 45.93C135.75 45.93 135.25 46.56 135.25 47.33C135.25 48.09 135.75 48.72 136.37 48.72L185.91 48.72C186.54 48.72 187.04 48.09 187.04 47.33C187.04 46.56 186.54 45.93 185.91 45.93Z" fill="#EBEBEB" fill-opacity="1.000000" fill-rule="nonzero"/>
		<path id="Vector" d="M182.02 64.59L108.88 64.59C108.29 64.59 107.8 65.22 107.8 65.98C107.8 66.75 108.29 67.38 108.88 67.38L182.02 67.38C182.62 67.38 183.1 66.75 183.1 65.98C183.1 65.22 182.62 64.59 182.02 64.59Z" fill="#EBEBEB" fill-opacity="1.000000" fill-rule="nonzero"/>
		<path id="Vector" d="M182.02 73.26L108.88 73.26C108.29 73.26 107.8 73.89 107.8 74.66C107.8 75.42 108.29 76.05 108.88 76.05L182.02 76.05C182.62 76.05 183.1 75.42 183.1 74.66C183.1 73.89 182.62 73.26 182.02 73.26Z" fill="#EBEBEB" fill-opacity="1.000000" fill-rule="nonzero"/>
		<path id="Vector" d="M182.02 81.93L108.88 81.93C108.29 81.93 107.8 82.56 107.8 83.33C107.8 84.1 108.29 84.72 108.88 84.72L182.02 84.72C182.62 84.72 183.1 84.1 183.1 83.33C183.1 82.56 182.62 81.93 182.02 81.93Z" fill="#EBEBEB" fill-opacity="1.000000" fill-rule="nonzero"/>
		<path id="Vector" d="M182.02 90.6L108.88 90.6C108.29 90.6 107.8 91.23 107.8 92C107.8 92.77 108.29 93.39 108.88 93.39L182.02 93.39C182.62 93.39 183.1 92.77 183.1 92C183.1 91.23 182.62 90.6 182.02 90.6Z" fill="#EBEBEB" fill-opacity="1.000000" fill-rule="nonzero"/>
		<path id="Vector" d="M247.8 120.49L141.99 120.49C140.94 120.49 139.91 120.18 139.03 119.6L138.96 119.56L138.96 47.25C138.96 45.89 139.5 44.59 140.45 43.64C141.41 42.68 142.71 42.14 144.06 42.14L242.7 42.14C244.05 42.14 245.35 42.68 246.31 43.64C247.26 44.59 247.8 45.89 247.8 47.25L247.8 120.49Z" fill="#4B93E7" fill-opacity="1.000000" fill-rule="nonzero"/>
		<path id="Vector" d="M173.43 64.28C173.43 70.27 168.59 75.12 162.61 75.12C156.64 75.12 151.79 70.27 151.79 64.28C151.79 58.3 156.64 53.44 162.61 53.44C168.59 53.44 173.43 58.3 173.43 64.28Z" fill="#EBEBEB" fill-opacity="1.000000" fill-rule="evenodd"/>
		<path id="Vector" d="M204.67 58.47L184.57 58.47C184.2 58.47 183.84 58.62 183.58 58.88C183.32 59.14 183.18 59.5 183.18 59.87C183.18 60.24 183.32 60.59 183.58 60.85C183.84 61.11 184.2 61.26 184.57 61.26L204.67 61.26C205.03 61.26 205.39 61.11 205.65 60.85C205.91 60.59 206.06 60.24 206.06 59.87C206.06 59.5 205.91 59.14 205.65 58.88C205.39 58.62 205.03 58.47 204.67 58.47Z" fill="#EBEBEB" fill-opacity="1.000000" fill-rule="nonzero"/>
		<path id="Vector" d="M233.84 67.3L184.3 67.3C183.68 67.3 183.18 67.93 183.18 68.69C183.18 69.46 183.68 70.09 184.3 70.09L233.84 70.09C234.46 70.09 234.97 69.46 234.97 68.69C234.97 67.93 234.46 67.3 233.84 67.3Z" fill="#EBEBEB" fill-opacity="1.000000" fill-rule="nonzero"/>
		<path id="Vector" d="M229.95 85.96L156.81 85.96C156.21 85.96 155.73 86.59 155.73 87.35C155.73 88.12 156.21 88.75 156.81 88.75L229.95 88.75C230.54 88.75 231.03 88.12 231.03 87.35C231.03 86.59 230.54 85.96 229.95 85.96Z" fill="#EBEBEB" fill-opacity="1.000000" fill-rule="nonzero"/>
		<path id="Vector" d="M229.95 94.63L156.81 94.63C156.21 94.63 155.73 95.26 155.73 96.02C155.73 96.79 156.21 97.42 156.81 97.42L229.95 97.42C230.54 97.42 231.03 96.79 231.03 96.02C231.03 95.26 230.54 94.63 229.95 94.63Z" fill="#EBEBEB" fill-opacity="1.000000" fill-rule="nonzero"/>
		<path id="Vector" d="M229.95 103.3L156.81 103.3C156.21 103.3 155.73 103.93 155.73 104.7C155.73 105.46 156.21 106.09 156.81 106.09L229.95 106.09C230.54 106.09 231.03 105.46 231.03 104.7C231.03 103.93 230.54 103.3 229.95 103.3Z" fill="#EBEBEB" fill-opacity="1.000000" fill-rule="nonzero"/>
		<path id="Vector" d="M229.95 111.97L156.81 111.97C156.21 111.97 155.73 112.6 155.73 113.37C155.73 114.14 156.21 114.76 156.81 114.76L229.95 114.76C230.54 114.76 231.03 114.14 231.03 113.37C231.03 112.6 230.54 111.97 229.95 111.97Z" fill="#EBEBEB" fill-opacity="1.000000" fill-rule="nonzero"/>
		<path id="Vector" d="M250.74 119.72L141.99 119.72C140.95 119.72 139.93 119.36 139.11 118.71C139.05 118.66 138.98 118.61 138.92 118.55L129.72 110.43L115.08 97.5C114.12 96.65 112.88 96.18 111.6 96.18L85 96.18C83.61 96.18 82.27 96.74 81.28 97.72C80.3 98.71 79.74 100.05 79.74 101.44L79.74 221.91C79.74 223.31 80.3 224.65 81.28 225.63C82.27 226.62 83.61 227.18 85 227.18L250.74 227.18C252.13 227.18 253.47 226.62 254.45 225.63C255.44 224.65 255.99 223.31 256 221.91L256 124.98C255.99 123.59 255.44 122.25 254.45 121.26C253.47 120.27 252.13 119.72 250.74 119.72ZM255.38 221.91C255.38 223.15 254.89 224.33 254.02 225.2C253.15 226.07 251.97 226.56 250.74 226.56L85 226.56C83.77 226.56 82.59 226.07 81.72 225.2C80.85 224.33 80.36 223.15 80.36 221.91L80.36 101.44C80.36 100.21 80.85 99.03 81.72 98.16C82.59 97.29 83.77 96.8 85 96.8L111.6 96.8C112.73 96.8 113.82 97.21 114.67 97.96L128.78 110.43L138.51 119.02C139.47 119.86 140.71 120.33 141.99 120.34L250.74 120.34C251.97 120.34 253.15 120.83 254.02 121.7C254.89 122.57 255.38 123.75 255.38 124.98L255.38 221.91Z" fill="#4B93E7" fill-opacity="1.000000" fill-rule="nonzero"/>
		<path id="Vector" d="M48.47 121.75C48.47 130.91 41.06 138.33 31.92 138.33C22.78 138.33 15.37 130.91 15.37 121.75C15.37 112.6 22.78 105.18 31.92 105.18C41.06 105.18 48.47 112.6 48.47 121.75Z" fill="#4B93E7" fill-opacity="1.000000" fill-rule="evenodd"/>
		<path id="Vector" d="M31.79 227L27.23 227C26.65 227 26.1 226.77 25.7 226.36C25.29 225.96 25.06 225.41 25.06 224.83L25.06 186.73C25.06 186.16 25.29 185.61 25.7 185.2C26.1 184.8 26.65 184.57 27.23 184.57L31.79 184.57C32.36 184.57 32.91 184.8 33.32 185.2C33.72 185.61 33.95 186.16 33.95 186.73L33.95 224.83C33.95 225.41 33.72 225.96 33.32 226.36C32.91 226.77 32.36 227 31.79 227Z" fill="#4B93E7" fill-opacity="1.000000" fill-rule="nonzero"/>
		<path id="Vector" d="M41.68 227L37.12 227C36.55 227 36 226.77 35.59 226.36C35.18 225.96 34.96 225.41 34.96 224.83L34.96 186.73C34.96 186.16 35.18 185.61 35.59 185.2C36 184.8 36.55 184.57 37.12 184.57L41.68 184.57C42.26 184.57 42.81 184.8 43.21 185.2C43.62 185.61 43.85 186.16 43.85 186.73L43.85 224.83C43.85 225.41 43.62 225.96 43.21 226.36C42.81 226.77 42.26 227 41.68 227Z" fill="#4B93E7" fill-opacity="1.000000" fill-rule="nonzero"/>
		<path id="Vector" d="M58.26 178.3C58.26 191.81 45.57 196.17 32.07 196.17C18.58 196.17 9.4 191.81 9.4 178.3C9.4 164.79 18.48 141.76 31.97 141.76C45.46 141.76 58.26 164.79 58.26 178.3Z" fill="#082777" fill-opacity="1.000000" fill-rule="nonzero"/>
		<path id="Vector" d="M31.58 127.89L31.56 127.28C32.71 127.24 33.72 127.17 34.48 126.61C34.7 126.45 34.88 126.23 35.01 125.99C35.13 125.75 35.21 125.48 35.22 125.21C35.23 125.04 35.21 124.88 35.15 124.72C35.09 124.57 34.99 124.43 34.86 124.31C34.36 123.89 33.54 124.02 32.95 124.3L32.44 124.53L33.42 117.35L34.03 117.43L33.2 123.54C34.01 123.31 34.75 123.41 35.26 123.84C35.46 124.01 35.61 124.23 35.71 124.47C35.81 124.71 35.86 124.97 35.84 125.23C35.82 125.6 35.72 125.96 35.55 126.28C35.38 126.61 35.14 126.89 34.85 127.11C33.87 127.83 32.6 127.87 31.58 127.89Z" fill="#082777" fill-opacity="1.000000" fill-rule="nonzero"/>
		<path id="Vector" d="M37.06 117.96L40.39 117.96L40.39 118.58L37.06 118.58L37.06 117.96Z" fill="#082777" fill-opacity="1.000000" fill-rule="evenodd"/>
		<path id="Vector" d="M26.55 117.96L29.88 117.96L29.88 118.58L26.55 118.58L26.55 117.96Z" fill="#082777" fill-opacity="1.000000" fill-rule="evenodd"/>
		<path id="Vector" d="M215.8 205.81L124.89 205.81C123.66 205.81 122.48 205.32 121.61 204.45C120.74 203.58 120.25 202.4 120.25 201.16L120.25 150.99C120.25 149.76 120.74 148.58 121.61 147.71C122.48 146.84 123.66 146.35 124.89 146.35L215.8 146.35C217.03 146.35 218.21 146.84 219.08 147.71C219.95 148.58 220.43 149.76 220.44 150.99L220.44 201.16C220.43 202.4 219.95 203.58 219.08 204.45C218.21 205.32 217.03 205.81 215.8 205.81ZM124.89 146.97C123.82 146.97 122.8 147.39 122.05 148.15C121.29 148.9 120.87 149.93 120.87 150.99L120.87 201.16C120.87 202.23 121.29 203.26 122.05 204.01C122.8 204.76 123.82 205.19 124.89 205.19L215.8 205.19C216.86 205.19 217.88 204.76 218.64 204.01C219.39 203.26 219.82 202.23 219.82 201.16L219.82 150.99C219.82 149.93 219.39 148.9 218.64 148.15C217.88 147.39 216.86 146.97 215.8 146.97L124.89 146.97Z" fill="#FFFFFF" fill-opacity="1.000000" fill-rule="nonzero"/>
		<path id="Vector" d="M150.4 164.93C150.4 170.92 145.55 175.77 139.58 175.77C133.6 175.77 128.75 170.92 128.75 164.93C128.75 158.94 133.6 154.09 139.58 154.09C145.55 154.09 150.4 158.94 150.4 164.93Z" fill="#FFFFFF" fill-opacity="1.000000" fill-rule="evenodd"/>
		<path id="Vector" d="M181.63 159.12L161.53 159.12C161.16 159.12 160.81 159.27 160.55 159.53C160.28 159.79 160.14 160.15 160.14 160.52C160.14 160.89 160.28 161.24 160.55 161.5C160.81 161.76 161.16 161.91 161.53 161.91L181.63 161.91C182 161.91 182.35 161.76 182.61 161.5C182.87 161.24 183.02 160.89 183.02 160.52C183.02 160.15 182.87 159.79 182.61 159.53C182.35 159.27 182 159.12 181.63 159.12Z" fill="#FFFFFF" fill-opacity="1.000000" fill-rule="nonzero"/>
		<path id="Vector" d="M210.81 167.95L161.26 167.95C160.64 167.95 160.14 168.58 160.14 169.34C160.14 170.11 160.64 170.74 161.26 170.74L210.81 170.74C211.43 170.74 211.93 170.11 211.93 169.34C211.93 168.58 211.43 167.95 210.81 167.95Z" fill="#FFFFFF" fill-opacity="1.000000" fill-rule="nonzero"/>
		<path id="Vector" d="M206.91 186.61L133.77 186.61C133.18 186.61 132.7 187.23 132.7 188C132.7 188.77 133.18 189.4 133.77 189.4L206.91 189.4C207.51 189.4 207.99 188.77 207.99 188C207.99 187.23 207.51 186.61 206.91 186.61Z" fill="#FFFFFF" fill-opacity="1.000000" fill-rule="nonzero"/>
		<path id="Vector" d="M206.91 195.28L133.77 195.28C133.18 195.28 132.7 195.91 132.7 196.67C132.7 197.44 133.18 198.07 133.77 198.07L206.91 198.07C207.51 198.07 207.99 197.44 207.99 196.67C207.99 195.91 207.51 195.28 206.91 195.28Z" fill="#FFFFFF" fill-opacity="1.000000" fill-rule="nonzero"/>
		<path id="Vector" d="M18.72 117.2C20 115.26 22.27 114.43 24.5 114.23C27.01 114.01 29.44 114.49 31.9 114.97C34.6 115.49 37.46 115.97 40.18 115.31C41.38 115.04 42.51 114.49 43.47 113.71C44.43 112.93 45.2 111.95 45.73 110.83C46.72 108.64 46.94 106.18 46.34 103.85C45.7 101.38 44.11 99.2 42.2 97.56C38.28 94.2 32.98 92.7 27.88 92.84C22.8 92.97 17.89 94.7 13.85 97.78C9.8 100.97 6.95 105.44 5.77 110.47C4.53 115.45 4.93 120.7 6.92 125.43C8.03 128.02 9.64 130.36 10.89 132.89C12.05 135.24 12.94 137.98 12.22 140.6C11.59 142.9 9.73 144.95 7.4 145.57C5.18 146.17 2.98 145.19 1.76 143.27C0.6 141.43 0.57 139.02 2.32 137.53C2.76 137.15 3.28 136.86 3.83 136.68C4.39 136.51 4.97 136.45 5.55 136.5C6.13 136.56 6.7 136.74 7.21 137.02C7.72 137.3 8.16 137.69 8.52 138.15C9.23 139.07 9.55 140.24 9.41 141.4C9.32 141.98 10.21 142.23 10.3 141.64C10.51 140.42 10.28 139.16 9.65 138.09C9.02 137.02 8.03 136.21 6.85 135.81C5.68 135.4 4.41 135.42 3.25 135.87C2.09 136.32 1.13 137.17 0.54 138.26C-0.51 140.25 0.06 142.65 1.4 144.35C2.09 145.25 3.03 145.94 4.1 146.32C5.17 146.71 6.33 146.78 7.44 146.52C9.88 145.96 11.87 144.01 12.81 141.73C13.85 139.19 13.38 136.36 12.36 133.89C11.26 131.23 9.62 128.84 8.33 126.27C7.16 123.95 6.41 121.43 6.13 118.85C5.56 113.66 6.74 108.43 9.47 103.98C12.26 99.61 16.51 96.37 21.47 94.85C26.36 93.31 31.75 93.36 36.53 95.25C41.24 97.11 45.8 101.16 45.74 106.61C45.72 108.93 44.86 111.3 43.08 112.86C40.95 114.71 37.99 114.87 35.32 114.58C32.63 114.29 30.02 113.5 27.32 113.3C24.97 113.13 22.44 113.31 20.34 114.48C19.36 115.02 18.53 115.79 17.91 116.73C17.58 117.23 18.39 117.69 18.72 117.2Z" fill="#082777" fill-opacity="1.000000" fill-rule="nonzero"/>
		<path id="Vector" d="M13.95 194.88C13.84 194.88 13.73 194.87 13.62 194.86L9.11 194.17C8.54 194.08 8.03 193.77 7.69 193.31C7.35 192.85 7.21 192.27 7.29 191.7L13.02 154.04C13.11 153.47 13.41 152.96 13.88 152.62C14.34 152.28 14.92 152.13 15.48 152.22L20 152.91C20.56 152.99 21.07 153.3 21.41 153.77C21.75 154.23 21.9 154.81 21.81 155.38L16.09 193.04C16.01 193.55 15.75 194.02 15.36 194.36C14.96 194.69 14.47 194.88 13.95 194.88Z" fill="#4B93E7" fill-opacity="1.000000" fill-rule="nonzero"/>
		<path id="Vector" d="M19.34 169.21C19.19 169.21 19.03 169.2 18.88 169.16L10.47 167.47C10.19 167.41 9.93 167.29 9.69 167.13C9.46 166.97 9.26 166.76 9.1 166.53C8.95 166.29 8.84 166.02 8.79 165.74C8.74 165.46 8.75 165.17 8.81 164.89L12.47 152.68C12.85 151.41 13.68 150.33 14.81 149.63C15.94 148.94 17.28 148.68 18.58 148.91C19.95 149.15 21.17 149.91 21.99 151.02C22.81 152.14 23.18 153.53 23.01 154.9L21.45 167.49C21.35 167.97 21.09 168.41 20.7 168.72C20.32 169.04 19.84 169.21 19.34 169.21Z" fill="#082777" fill-opacity="1.000000" fill-rule="nonzero"/>
		<path id="Vector" d="M59.32 227.18L10.77 227.18C10.69 227.18 10.61 227.15 10.55 227.09C10.5 227.03 10.46 226.95 10.46 226.87C10.46 226.79 10.5 226.71 10.55 226.65C10.61 226.59 10.69 226.56 10.77 226.56L59.32 226.56C59.4 226.56 59.48 226.59 59.54 226.65C59.6 226.71 59.63 226.79 59.63 226.87C59.63 226.95 59.6 227.03 59.54 227.09C59.48 227.15 59.4 227.18 59.32 227.18Z" fill="#4E4E4E" fill-opacity="1.000000" fill-rule="nonzero"/>
		<path id="Vector 8" d="M26.13 129.34C28.37 133.02 34.44 138.18 40.87 129.34" stroke="#082777" stroke-opacity="1.000000" stroke-width="1.000000"/>
	</g>
	<path id="Vector 1" d="M105.03 17.93L105.03 32.91C97.58 25.11 87.15 11.18 105.03 17.93Z" stroke="#4B93E7" stroke-opacity="1.000000" stroke-width="12.326380"/>
	<path id="Vector 2" d="M105.03 17.93L105.03 32.91C112.48 25.11 122.92 11.18 105.03 17.93Z" stroke="#4B93E7" stroke-opacity="1.000000" stroke-width="12.326380"/>
	<path id="Vector 3" d="M105.03 32.91C97.58 25.11 87.15 11.18 105.03 17.93L105.03 32.91Z" fill="#082777" fill-opacity="1.000000" fill-rule="evenodd"/>
	<path id="Vector 4" d="M105.03 32.91C112.48 25.11 122.92 11.18 105.03 17.93L105.03 32.91Z" fill="#082777" fill-opacity="1.000000" fill-rule="evenodd"/>
	<ellipse id="Ellipse 1" rx="6.947704" ry="6.079241" transform="matrix(1 -5.55112e-17 5.55112e-17 1 105.218 6.07935)" fill="#4B93E7" fill-opacity="1.000000"/>
</svg>
